<mxfile host="app.diagrams.net" modified="2023-07-14T15:29:58.272Z" agent="Mozilla/5.0 (Windows NT 10.0; Win64; x64) AppleWebKit/537.36 (KHTML, like Gecko) Chrome/114.0.0.0 Safari/537.36 Edg/114.0.1823.79" version="21.6.2" etag="UqwvQTwP_v0TacYKA33r" type="github">
  <diagram name="PÃ¡gina-1" id="BomDCjL3KBtadit0s22r">
    <mxGraphModel>
      <root>
        <mxCell id="0" />
        <mxCell id="1" parent="0" />
      </root>
    </mxGraphModel>
  </diagram>
</mxfile>
